<svg width="54" height="40" viewBox="0 0 54 40" fill="none" xmlns="http://www.w3.org/2000/svg">
<path fill-rule="evenodd" clip-rule="evenodd" d="M45.206 13.9617C46.4608 9.67002 47.8874 2.69745 44.7129 0.608192C41.564 -1.4642 35.7974 2.24071 32.5908 4.6771C30.6978 4.182 28.6908 3.91595 26.6125 3.91595C24.3159 3.91595 22.1065 4.2408 20.0417 4.84056C16.7391 2.41143 10.5299 -1.51095 7.30977 0.608327C3.88595 2.86168 6.07814 10.7956 7.51331 14.9198C6.45912 17.0826 5.87602 19.4614 5.87602 21.9587C5.87602 31.9234 15.16 40.0015 26.6125 40.0015C38.0649 40.0015 47.3489 31.9234 47.3489 21.9587C47.3489 19.0869 46.5778 16.3719 45.206 13.9617Z" fill="#323232"/>
<path d="M9.05412 2.7723C7.0084 4.11866 8.29866 8.83933 9.16131 11.3299C9.40912 12.0453 10.3273 12.1765 10.8242 11.6054C12.6495 9.50766 14.2198 8.27678 16.6292 7.02952C17.2746 6.69544 17.389 5.82241 16.8054 5.38929C14.8482 3.9369 11.0222 1.47703 9.05412 2.7723Z" fill="#FFEDB4"/>
<path d="M43.6882 2.7723C45.7339 4.11866 44.4437 8.83933 43.581 11.3299C43.3332 12.0453 42.415 12.1765 41.9181 11.6054C40.0928 9.50766 38.5225 8.27678 36.1131 7.02952C35.4677 6.69544 35.3533 5.82241 35.9369 5.38929C37.8941 3.9369 41.7201 1.47703 43.6882 2.7723Z" fill="#FFEDB4"/>
<path d="M44.248 24.5884C47.2352 24.18 48.9297 24.0762 52 24.1992" stroke="#323232" stroke-width="3.5" stroke-linecap="round" stroke-linejoin="round"/>
<path d="M42.0932 28.4312C45.3499 30.2664 47.2472 31.1899 50.8061 32.5767" stroke="#323232" stroke-width="3.5" stroke-linecap="round" stroke-linejoin="round"/>
<path d="M9.75195 24.5884C6.76481 24.18 5.07027 24.0762 2.00002 24.1992" stroke="#323232" stroke-width="3.5" stroke-linecap="round" stroke-linejoin="round"/>
<path d="M11.9068 28.4312C8.65012 30.2664 6.75283 31.1899 3.19385 32.5767" stroke="#323232" stroke-width="3.5" stroke-linecap="round" stroke-linejoin="round"/>
<ellipse cx="17.1163" cy="23.7615" rx="5.03876" ry="5.05872" fill="white"/>
<ellipse cx="18.9727" cy="23.7615" rx="2.12158" ry="2.12999" fill="#323232"/>
<ellipse cx="5.03876" cy="5.05872" rx="5.03876" ry="5.05872" transform="matrix(-1 0 0 1 41.9225 18.7028)" fill="white"/>
<ellipse cx="2.12158" cy="2.12999" rx="2.12158" ry="2.12999" transform="matrix(-1 0 0 1 37.1489 21.6315)" fill="#323232"/>
<ellipse cx="26.9999" cy="29.4038" rx="2.13178" ry="1.75109" fill="#A27749"/>
</svg>
