<svg width="195" height="23" viewBox="0 0 195 23" fill="none" xmlns="http://www.w3.org/2000/svg">
<path d="M0.536985 19.2443C1.95358 13.0749 5.25897 9.32237 10.768 7.66872C15.0177 6.36487 20.2119 7.0963 24.1469 9.48137C25.2881 10.181 27.2162 11.9619 28.7508 13.6791C31.8988 17.3044 33.3154 18.3221 36.1093 18.9581C41.6576 20.2937 46.7731 17.5588 49.803 11.6756C54.525 2.42155 62.1195 -1.87159 69.0058 0.767893C71.7996 1.84913 74.5148 4.29781 78.5678 9.38597C83.5652 15.6508 85.454 17.5906 87.8937 18.9581C93.2847 21.9474 98.1247 20.1983 102.886 13.5201C106.782 8.01853 107.608 6.96909 109.221 5.44264C111.307 3.50278 114.416 1.81733 117.17 1.1495C121.695 0.06827 124.961 0.799694 128.424 3.62999C130.431 5.28364 131.375 6.49208 134.051 10.8488C135.822 13.7109 137.947 16.7638 138.734 17.6224C140.544 19.4987 143.574 20.9615 146.289 21.216C149.358 21.5022 151.68 20.4209 157.543 15.9052C163.603 11.2622 166.043 10.1492 170.686 9.92659C173.952 9.76758 177.297 10.34 179.658 11.453L180.956 12.0573V10.3718C180.956 8.24113 181.35 6.68288 181.861 6.68288C182.451 6.68288 189.062 9.41777 192.053 10.9124C194.729 12.2481 195.28 12.7251 194.886 13.4565C194.611 13.9971 182.215 19.1807 181.743 18.9263C181.507 18.8309 181.35 17.9086 181.35 16.9228C181.35 14.2197 181.153 13.9335 178.674 12.9477C173.913 11.1032 169.82 11.0714 165.256 12.9159C163.249 13.7109 161.36 14.9512 157.7 17.8132C152.073 22.2018 150.303 23.0604 146.997 22.9968C141.764 22.9014 137.986 20.1983 134.09 13.7427C130.864 8.43194 128.936 6.01506 126.771 4.45681C123.623 2.19894 119.57 1.97633 115.006 3.82079C111.307 5.28364 108.513 7.89132 105.247 12.9795C101.155 19.3715 98.3214 21.5022 93.6388 21.852C88.0905 22.2654 85.0605 20.1029 77.2693 10.181C73.413 5.28364 70.5011 2.83496 67.6285 2.07173C63.8903 1.0859 60.6636 1.91273 57.2402 4.71122C54.7218 6.81009 52.6756 9.32237 51.0622 12.3435C47.7175 18.6719 43.6645 21.2796 37.7226 20.9297C33.6696 20.6753 31.1512 19.1807 27.5704 14.8875C24.4617 11.1668 21.904 9.64038 17.4968 8.90896C9.90226 7.63691 3.48823 12.3753 1.75683 20.5163C1.40268 22.17 1.08788 22.7742 0.615685 22.8378C-0.171313 22.965 -0.210662 22.4244 0.536985 19.2443ZM187.252 12.3753C188.118 12.7569 188.826 12.9477 188.826 12.7569C188.826 12.5661 188.118 12.1209 187.252 11.771C186.386 11.4212 185.678 11.2304 185.678 11.3894C185.678 11.5484 186.386 11.9619 187.252 12.3753Z" fill="black"/>
</svg>
