<svg width="50" height="40" viewBox="0 0 50 40" fill="none" xmlns="http://www.w3.org/2000/svg">
<path d="M22.3568 18.2108C22.3568 25.2011 19.4716 30.381 11.5148 30.381C3.55796 30.381 -1.51359 28.4338 0.406997 17.4805C2.32758 6.52728 12.3969 0.685547 19.0643 0.685547C25.7317 0.685547 22.3568 11.2204 22.3568 18.2108Z" fill="#B37B5E"/>
<path d="M27.6432 18.2108C27.6432 25.2011 30.5284 30.381 38.4852 30.381C46.442 30.381 51.5136 28.4338 49.593 17.4805C47.6724 6.52728 37.6031 0.685547 30.9357 0.685547C24.2683 0.685547 27.6432 11.2204 27.6432 18.2108Z" fill="#B37B5E"/>
<path d="M42.6013 21.4995C42.6013 33.8605 39.7764 31.0993 25.1814 31.3938C10.5864 31.6883 7.7616 33.8605 7.7616 21.4995C7.7616 9.13846 11.824 0.00134277 24.4752 0.00134277C37.1265 0.00134277 42.6013 9.13846 42.6013 21.4995Z" fill="#DCAD8F"/>
<path d="M41.6058 31.38C41.6058 36.406 34.1409 40.0013 24.9325 40.0013C15.7242 40.0013 8.25928 36.406 8.25928 31.38C8.25928 26.3541 14.4806 22.2798 24.9325 22.2798C35.3844 22.2798 41.6058 26.3541 41.6058 31.38Z" fill="#C9936D"/>
<ellipse cx="17.6543" cy="20.2545" rx="1.99084" ry="3.03798" fill="#3A211F"/>
<ellipse cx="18.2411" cy="18.8791" rx="0.525159" ry="0.534255" fill="white"/>
<ellipse cx="1.99084" cy="3.03798" rx="1.99084" ry="3.03798" transform="matrix(-1 0 0 1 35.0741 17.2166)" fill="#3A211F"/>
<ellipse cx="0.525159" cy="0.534255" rx="0.525159" ry="0.534255" transform="matrix(-1 0 0 1 34.4446 18.3448)" fill="white"/>
<rect x="25" y="28.9443" width="1.19048" height="5.24808" rx="0.595238" fill="#3A211F"/>
<path d="M29.8084 26.9683C29.8084 25.8383 27.9325 24.9223 25.6185 24.9223C23.3045 24.9223 21.4286 25.8383 21.4286 26.9683C21.4286 28.0982 23.3045 30.7832 25.6185 30.7832C27.9326 30.7832 29.8084 28.0982 29.8084 26.9683Z" fill="#3A211F"/>
<ellipse cx="23.2617" cy="26.7868" rx="0.78561" ry="0.799217" fill="white"/>
</svg>
