<svg width="43" height="42" viewBox="0 0 43 42" fill="none" xmlns="http://www.w3.org/2000/svg">
<circle cx="8.72308" cy="8.72442" r="8.72308" fill="#C4C4C4"/>
<circle cx="8.27575" cy="8.71398" r="6.03905" fill="#FFDED0"/>
<circle cx="8.72308" cy="8.72308" r="8.72308" transform="matrix(-1 0 0 1 42.6461 0.00134277)" fill="#C4C4C4"/>
<circle cx="6.03905" cy="6.03905" r="6.03905" transform="matrix(-1 0 0 1 40.4094 2.67493)" fill="#FFDED0"/>
<path fill-rule="evenodd" clip-rule="evenodd" d="M38.6426 26.8986C37.9259 26.0323 37.4769 24.9559 37.4769 23.8315C37.4769 14.4175 30.1723 6.78589 21.1615 6.78589C12.1508 6.78589 4.84616 14.4175 4.84616 23.8315C4.84616 24.9559 4.3972 26.0323 3.68053 26.8986C2.56204 28.2506 1.93848 29.7548 1.93848 31.3397C1.93848 37.2279 10.5449 42.0013 21.1616 42.0013C31.7782 42.0013 40.3846 37.2279 40.3846 31.3397C40.3846 29.7548 39.7611 28.2506 38.6426 26.8986Z" fill="#C4C4C4"/>
<path fill-rule="evenodd" clip-rule="evenodd" d="M37.8665 25.6446C38.0629 26.0942 38.3267 26.5168 38.6426 26.8986C39.7611 28.2506 40.3846 29.7548 40.3846 31.3397C40.3846 37.2279 31.7782 42.0013 21.1616 42.0013C10.5449 42.0013 1.93848 37.2279 1.93848 31.3397C1.93848 29.7548 2.56205 28.2506 3.68054 26.8986C3.99641 26.5168 4.26028 26.0941 4.45662 25.6446C5.34565 25.3564 6.29021 25.2013 7.26924 25.2013C10.008 25.2013 12.4769 26.4152 14.2154 28.359C15.9539 26.4153 18.4228 25.2013 21.1615 25.2013C23.9003 25.2013 26.3692 26.4153 28.1077 28.359C29.8461 26.4153 32.3151 25.2013 35.0538 25.2013C36.0329 25.2013 36.9775 25.3565 37.8665 25.6446Z" fill="#EBEBEB"/>
<rect x="21.0222" y="25.9391" width="0.646154" height="3.87692" rx="0.323077" fill="#433D3C"/>
<ellipse cx="21.3606" cy="25.8077" rx="2.39662" ry="1.57563" fill="#433D3C"/>
<circle cx="20.1246" cy="25.2985" r="0.484615" fill="white"/>
<path d="M18.7384 28.8036C19.9627 29.9455 22.6833 29.9455 23.9076 28.8036" stroke="#433D3C" stroke-width="1.92307" stroke-linecap="round"/>
<ellipse cx="2.16004" cy="2.70005" rx="2.16004" ry="2.70005" transform="matrix(-1 0 0 1 15.9508 19.709)" fill="#433D3C"/>
<ellipse cx="0.810014" cy="0.945017" rx="0.810014" ry="0.945017" transform="matrix(-1 0 0 1 15.1407 20.519)" fill="white"/>
<circle cx="0.405007" cy="0.405007" r="0.405007" transform="matrix(-1 0 0 1 13.5208 22.4091)" fill="white"/>
<ellipse cx="2.16004" cy="2.70005" rx="2.16004" ry="2.70005" transform="matrix(-1 0 0 1 31.1819 19.709)" fill="#433D3C"/>
<ellipse cx="0.810014" cy="0.945017" rx="0.810014" ry="0.945017" transform="matrix(-1 0 0 1 30.3719 20.519)" fill="white"/>
<circle cx="0.405007" cy="0.405007" r="0.405007" transform="matrix(-1 0 0 1 28.7518 22.4091)" fill="white"/>
<path d="M28.4305 26.3182C30.6715 26.1804 31.9427 26.1454 34.2459 26.1869" stroke="#343434" stroke-width="1.5" stroke-linecap="round" stroke-linejoin="round"/>
<path d="M34.2212 30.0474C32.0253 29.6538 30.7724 29.4732 28.4845 29.2499" stroke="#343434" stroke-width="1.5" stroke-linecap="round" stroke-linejoin="round"/>
<path d="M28.4107 27.8656C30.6233 27.8168 31.706 27.9089 33.919 28.0379" stroke="#343434" stroke-width="1.5" stroke-linecap="round" stroke-linejoin="round"/>
<path d="M14.5386 26.3182C12.2977 26.1804 11.0264 26.1454 8.72319 26.1869" stroke="#343434" stroke-width="1.5" stroke-linecap="round" stroke-linejoin="round"/>
<path d="M8.74793 30.0474C10.9438 29.6538 12.1967 29.4732 14.4846 29.2499" stroke="#343434" stroke-width="1.5" stroke-linecap="round" stroke-linejoin="round"/>
<path d="M14.5583 27.8656C12.3457 27.8168 11.263 27.9089 9.05004 28.0379" stroke="#343434" stroke-width="1.5" stroke-linecap="round" stroke-linejoin="round"/>
</svg>
